<?xml version="1.0" encoding="UTF-8"?>
<svg version="1.1" viewBox="0 0 1447 2048" width="1280" height="1280" xmlns="http://www.w3.org/2000/svg">
<path transform="translate(0)" d="m0 0h1447v2048h-1447z" fill="#FDFDFD"/>
<path transform="translate(601,590)" d="m0 0h34l21 2 12 2 18 4 23 8 16 8 16 9 12 9 10 8v2h2v2h2l7 8 10 12 7-1 20-9 16-5 22-5 13-1h12l14 1 16 4 16 6 15 8 14 11 6 5v2l4 2 9 11 4 5 8 16 4 11 3 12v29l-4 14-3 10 10 3 10 4 9 5 13 10 9 10 7 11 5 12 2 7 25 4 17 4 15 5 13 5 15 7 15 9 11 8 14 12 10 10 10 13 5 7 6 12 6 13 4 11 3 10 2 10 1 25-1 18-4 26-4 14-4 12-7 16-5 10-7 10-10 14-18 18-10 8-4 1v2l-21 13-30 14-23 8-24 4-621-1-13-1-16-3-28-7-21-7-17-7-17-8-10-6-11-6-7-5v-2l-5-2-13-11-8-7-9-9v-2h-2l-8-10-12-17-11-21-7-17-6-21-4-18-2-19v-49l3-28 5-22 8-22 8-16 6-10 8-11 9-10 7-8 8-8 11-9 5-2v-2l19-12 12-7 17-8 22-9 15-5 21-6 22-5 6-2 2-5 4-16 7-19 11-21 9-13 11-14 16-16 14-11 15-10 9-5 16-8 20-8 20-6 7-2 14-2z" fill="#FDFDFD"/>
<path transform="translate(601,590)" d="m0 0h34l21 2 12 2 18 4 23 8 16 8 16 9 12 9 10 8v2h2v2h2l7 8 10 12 7-1 20-9 16-5 22-5 13-1h12l14 1 16 4 16 6 15 8 14 11 6 5v2l4 2 9 11 4 5 8 16 4 11 3 12v29l-4 14-3 10 10 3 10 4 9 5 13 10 9 10 7 11 5 12 2 7 25 4 17 4 15 5 13 5 15 7 15 9 11 8 14 12 10 10 10 13 5 7 6 12 6 13 4 11 3 10 2 10 1 25-1 18-4 26-4 14-4 12-7 16-5 10-7 10-10 14-18 18-10 8-4 1v2l-21 13-30 14-23 8-24 4-621-1-13-1-16-3-28-7-21-7-17-7-17-8-10-6-11-6-7-5v-2l-5-2-13-11-8-7-9-9v-2h-2l-8-10-12-17-11-21-7-17-6-21-4-18-2-19v-49l3-28 5-22 8-22 8-16 6-10 8-11 9-10 7-8 8-8 11-9 5-2v-2l19-12 12-7 17-8 22-9 15-5 21-6 22-5 6-2 2-5 4-16 7-19 11-21 9-13 11-14 16-16 14-11 15-10 9-5 16-8 20-8 20-6 7-2 14-2zm34 123-16 1-25 5-30 10-16 8-17 9-21 14-14 11-13 11-7 6v2l-4 2-12 12-6 7h-27l-22 1-15 2-21 6-14 5-18 8-16 10-13 9-9 7v2l-4 2-11 10-7 8-11 12-5 7v2h-2l-8 12-9 14-9 16-8 16-7 16-4 7-1 5v17l4 23 6 21 2 10 9 19 12 19 11 13 9 10 7 7 11 9 17 12 18 11 10 5 8 3 12 5 17 6 17 5 22 5 22 3h618l13-2 21-6 13-5 24-12 18-11 10-8 11-9 7-8 3-3 2-5 8-11 8-14 8-17 5-17 3-21v-10l-4-16-6-15-8-14-14-17-7-7-16-12-5-2v-2l-13-8-21-10-16-7-34-11-30-7-10-2h-7l-1-7-5-13-8-12-15-15-6-5h-2v-2l-20-14-11-6-14-8-7-15-7-14-4-7h-2l-2-6-6-7h-2l-2-4-12-12-14-9-12-5-14-3h-23l-16 3-8 3-16 7-8 5-5-1-15-10-14-8-16-8-19-7-21-6-14-2-17-1z" fill="#8DD5E1"/>
<path transform="translate(601,590)" d="m0 0h34l21 2 12 2 18 4 23 8 16 8 16 9 12 9 10 8v2h2v2h2l7 8 10 12 7-1 20-9 16-5 22-5 13-1h12l14 1 16 4 16 6 15 8 14 11 6 5v2l4 2 9 11 4 5 8 16 4 11 3 12v29l-4 14-3 10 10 3 10 4 9 5 13 10 9 10 7 11 5 12 2 7 25 4 17 4 15 5 13 5 15 7 15 9 11 8 14 12 10 10 10 13 5 7 6 12 6 13 4 11 3 10 2 10 1 25-1 18-4 26-4 14-4 12-7 16-5 10-7 10-10 14-18 18-10 8-4 1v2l-21 13-30 14-23 8-24 4-621-1-13-1-16-3-28-7-21-7-17-7-17-8-10-6-11-6-7-5v-2l-5-2-13-11-8-7-9-9v-2h-2l-8-10-12-17-11-21-7-17-6-21-4-18-2-19v-49l3-28 5-22 8-22 8-16 6-10 8-11 9-10 7-8 8-8 11-9 5-2v-2l19-12 12-7 17-8 22-9 15-5 21-6 22-5 6-2 2-5 4-16 7-19 11-21 9-13 11-14 16-16 14-11 15-10 9-5 16-8 20-8 20-6 7-2 14-2zm16 14-23 1-21 3-21 6-15 5-13 6-12 6-19 12-11 9-8 7-9 9-9 11-6 8-3 5-5 9-7 14-6 16-5 21-1 8-37 8-27 8-19 7-23 10-20 11-22 16-15 14-11 12-5 8-3 3-6 10-8 16-7 19-5 22-3 22-1 16v38l1 11 7 31 7 19 8 17 12 19 11 13 9 10 7 7 11 9 17 12 18 11 10 5 8 3 12 5 17 6 17 5 22 5 22 3h618l13-2 21-6 13-5 24-12 18-11 10-8 11-9 7-8 11-13 8-13 8-16 5-12 5-19 2-14 1-13v-30l-2-12-5-17-5-12-9-17-9-12-11-12-9-9-14-10-17-10-16-7-10-4-24-7-18-3-19-2-2-6-3-11-8-15-12-13-12-9-8-4-15-5-8-1h-10l12-24 4-14 1-7v-14l-4-16-5-13-8-12-11-12-12-11-13-8-15-7-14-4-16-2h-13l-18 2-19 5-19 7-15 8-7 5-4 1-2-5-11-14-12-13-12-11-9-6h-2v-2l-7-4-19-10-19-7-18-5-19-3-25-2z" fill="#0E73BB"/>
<path transform="translate(428,971)" d="m0 0h57l12 3 9 5 4 5 3 7v16l-3 8-6 7-10 6 2 4 11 17 5 8 10 3 3 3 1 6-2 5-3 2h-21l-5-4-7-11-16-24-6-4h-10v23l1 2 9 3 1 2v10l-4 3h-35l-4-3v-11l5-3h5v-69l-9-4-2-5 1-7z" fill="#0E73BB"/>
<path transform="translate(539,971)" d="m0 0h85l3 3v30l-5 5h-7l-5-5-1-16-2-1h-39l-2 1v25l17 1 2-9 5-3 6 1 4 6v27l-3 5-2 1h-7l-4-4-2-7h-17v27h44l1-17 4-4h9l3 3 1 2v31l-2 3h-87l-4-4v-8l3-4 8-3v-60l-1-8-7-2-3-4v-7z" fill="#0E73BB"/>
<path transform="translate(915,971)" d="m0 0h34l5 5v7l-1 3-9 3-1 27 5-2 23-23-1-3-4-2-2-5 1-6 2-3 3-1h32l4 2 1 3v7l-1 3-3 2-9 2-13 13-1 2h-2v2l-6 5-1 6 8 8 9 14 8 17 1 1 9 2 3 2v11l-4 3h-20l-6-5-8-16-6-10-9-10-2-2-5 1-5 6v18l7 2 3 4v7l-4 5h-36l-4-4v-8l3-4 8-3v-65l-1-3-7-2-3-4v-7z" fill="#0E73BB"/>
<path transform="translate(355,967)" d="m0 0h11l14 3 7 1 3-3 8-1 4 4v34l-4 4h-7l-5-5-5-12-8-6-5-1h-10l-10 3-5 3-6 9-2 5-2 11v12l3 13 4 8 7 7 8 3 10 1 15-3 1-1 1-15h-14l-7-3-1-2v-7l4-5h46l3 3 1 2v6l-2 4-9 3-1 26-4 3-8 3-16 3-5 1h-14l-16-4-9-5-10-9-6-10-5-15v-25l5-15 6-9 3-4h2l2-4 13-8 7-2z" fill="#0E73BB"/>
<path transform="translate(840,967)" d="m0 0h12l10 2 8 2 5-4h6l4 4v28l-2 3h-10l-5-6-4-6-5-4-4-2h-14l-8 4-4 7 1 5 5 5 10 4 21 5 10 4 8 6 4 5 3 9v13l-4 11-7 8-6 3-8 3-11 2h-15l-19-4-6 4-9-1-3-3v-34l3-3h8l5 4 6 11 6 5 6 3 8 1h8l10-4 3-4v-9l-5-5-8-4-6-2-10-2-15-5-9-5-6-7-2-4v-18l5-10 7-7 8-5 7-2z" fill="#0E73BB"/>
<path transform="translate(651,971)" d="m0 0h34l4 4v9l-4 4-4 1 3 9 7 15 3 5 3 1 3-10 6-12 2-5v-3l-5-2-2-4v-8l2-3 3-1h30l4 3v11l-4 3-7 2-4 8-12 22-7 13-1 23 1 2 16 1 5 3 1 2v7l-5 5h-58l-4-3v-10l3-3 2-1h17v-21l-8-16-15-28-3-5-8-2-2-3v-9z" fill="#0E73BB"/>
<path transform="translate(1028,971)" d="m0 0h33l4 3v11l-3 3-4 1 1 6 10 22 4 1 11-25v-4l-5-3-2-3v-7l5-5h30l4 3v11l-4 3-7 1-2 5-7 14-12 22-3 6v21l1 1 16 1 5 3 1 1v10l-5 3h-58l-4-4v-9l3-3 3-1 16-1v-21l-12-22-6-12-7-13-8-3-3-4v-8z" fill="#0E73BB"/>
<path transform="translate(246,1237)" d="m0 0h32l7 3 5 6 1 8-3 6-5 4 1 5 8 9 1 2 6 2h5l3-2v-35l-7-3 1-5h14l20 30 3 4h2l1-27-8-1-2-4 2-2h19l1 5-5 3-1 43-5 1-3-2-4-7-13-19-5-7h-3v27l8 1 2 4-2 2h-32l-7-9-7-8-4-3h-11l-1 1v12l8 1 1 4-2 2h-20l-2-4 5-3h3v-37l-8-2z" fill="#0E73BB"/>
<path transform="translate(1378,1237)" d="m0 0h28l9 4 5 6 4 8v17l-5 10-9 5-4 1h-28l-1-5 5-2v-37l-5-2z" fill="#FEFEFE"/>
<path transform="translate(299,1164)" d="m0 0 4 1 19 10 18 8 27 9 19 5 12 3 13 2 13 1 621 1 24-4 17-6 17-7 16-8 11-6 11-7h2v-2l3 1-8 6-21 12-17 8-12 5-17 6-20 4h-628l-16-2-15-3-20-5-16-5-20-7-12-6-7-3-15-8z" fill="#8DD5E1"/>
<path transform="translate(297,1144)" d="m0 0 5 2 12 7 15 8 13 6 26 9 18 5 25 5 12 2h627l21-5 14-5 11-5 3 1-12 6-24 8-8 2-10 1h-618l-22-3-33-8-13-4-25-10-16-8-20-12z" fill="#8DD5E1"/>
<path transform="translate(643,1237)" d="m0 0h31l10 5 3 7-1 8-4 5-4 1 2 6 8 9 1 2 7 3-1 4-1 1h-8l-11-14-7-6h-11l-1 1v12l8 1 1 4-1 2h-21l-2-4 2-2 6-1-1-36-6-3v-4z" fill="#0E73BB"/>
<path transform="translate(1043,1237)" d="m0 0h31l7 3v2l4 2 2 4v10l-4 6-8 5-17 1-2 1v10l15 1 1 4-2 2h-27l-2-4 2-2 6-2v-35l-7-3z" fill="#0E73BB"/>
<path transform="translate(539,969)" d="m0 0h85l4 4v32l-5 6h-9l-5-6-1-4v-12h-41v22l1 1h13l3-8 3-3h8l5 4 1 2v31l-4 5h-11l-4-5-1-5h-13l-1 24h41v-13l3-7 7-2 6 1 3 2 1 3v33l-2 3-4 1h-76l-9-1-4-4-1-7 3-6 4-3h4v-66l-7-3-3-3-1-7 2-5zm0 2-5 5v7l5 5 5 1 1 14v54l-9 4-2 3v8l4 4h87l2-3v-31l-2-4-2-1h-9l-4 4-1 17h-44v-27h17l3 9 3 2h7l4-4 1-2v-27l-4-6-6-1-5 3-2 9-17-1v-25l2-1h39l2 1 1 16 5 5h7l5-5v-30l-3-3z" fill="#8DD5E1"/>
<path transform="translate(75,1237)" d="m0 0h13l11 15 11 17v2h4v-26l-9-3 1-4 1-1h19l1 5-5 3-1 43h-7l-7-10-16-24h-3v26l9 3v4l-2 1h-18l-2-4 3-3h3v-35l-1-2-6-2-1-2z" fill="#0E73BB"/>
<path transform="translate(869,1237)" d="m0 0h43v17l-4 1-2-2v-9h-23v13h8l2-5h5l1 1v16l-1 2-5-1-1-5h-10l1 15 1 1 23-1 1-8 2-2 4 1v17h-45l-2-4 2-2 6-2v-35l-7-3-1-2z" fill="#0E73BB"/>
<path transform="translate(586,1237)" d="m0 0h44v16l-2 2-4-1-1-3-1-7h-23l1 13h10v-5h5l1 6v11l-1 2-5-1-1-4-7-1-2 1-1 13 3 2h23v-9l2-2 4 1 1 1v15l-1 1h-44l-2-1 1-5 6-2v-35l-7-3z" fill="#0E73BB"/>
<path transform="translate(360,1237)" d="m0 0h43v17l-4 1-2-2-1-9h-23l1 13h8l4-6 4 3v15l-4 3-3-4v-3h-10v16h24l1-1 1-8 2-2 4 1v17l-3 1h-40l-4-3 1-4 7-2v-35l-7-3-1-2z" fill="#0E73BB"/>
<path transform="translate(190,1237)" d="m0 0h43l1 5-1 12-4 1-1-1-2-10h-23l1 13h8l2-5h5l1 1v16l-3 3-3-2-1-4-2-1h-8l1 16h24l1-9 2-2 4 1 1 1v15l-1 1h-45l-1-5 7-3v-35l-7-3z" fill="#0E73BB"/>
<path transform="translate(347,966)" d="m0 0h23l13 3 5-1 3-2h9l3 4v37l-4 4h-9l-5-6-5-12-5-4-4-2h-16l-9 4-7 8-3 8-1 6v18l3 12 6 8 5 4 9 3h11l11-2v-12l-13-1-7-4-1-2v-10l4-4 4-1h36l9 1 3 4v9l-2 4-5 3-4 1-1 25-9 6-14 3-6 1h-24l-10-3-8-4-9-7-7-8-5-10-3-10-1-9v-11l2-13 5-12 8-11 8-7 12-6zm8 1-11 2-8 3-11 8v2l-3 1-7 10-5 13-1 4v25l5 15 6 10 11 10 8 4 6 2 10 2h14l17-3 9-3 6-3 1-1 1-26 9-3 2-4v-6l-2-4-2-1h-46l-4 5v7l4 4 4 1h14l-1 15-9 3-7 1-10-1-8-3-7-7-5-10-2-11v-12l3-13 4-8 5-5 8-4 5-1h10l7 2 6 5 6 14 4 3h7l4-4v-34l-4-4-8 1-3 3-7-1-14-3z" fill="#8DD5E1"/>
<path transform="translate(456,988)" d="m0 0h22l7 3 4 5 1 3v7l-3 6-6 4-5 1h-20l-2-2v-25z" fill="#E9F6F8"/>
<path transform="translate(1378,1237)" d="m0 0h28l9 4 5 6 4 8v17l-5 10-9 5-4 1h-28l-1-5 5-2v-37l-5-2zm12 6-2 3v33l1 2 3 1h12l6-2 7-6 2-6v-9l-5-10-6-5-3-1z" fill="#0E73BB"/>
<path transform="translate(548,1236)" d="m0 0h10l5 2h5l4-1 1 2v13l-2 2-4-1-4-8-5-2h-10l-5 2-1 7 1 4 6 2 15 3 6 3 4 5v12l-5 5-7 3h-13l-6-2h-5-4l-1-1v-12l5-1 4 6 6 3h12l6-3 2-3-1-5-5-3-18-4-5-3v-2h-2l-2-4v-8l3-6 6-4z" fill="#0E73BB"/>
<path transform="translate(944,1236)" d="m0 0h10l5 2 8-1 2 3v11l-2 3-4-1-3-6v-2l-6-2h-10l-5 3-1 7 1 3 6 2 14 3 7 3 4 5 1 8-2 5-6 5-5 2h-14l-5-2h-5-4l-1-1v-11l1-2 5 1 3 5 6 3h13l6-4 1-4-2-4-8-3-13-3-6-3-4-6v-9l3-5 6-4z" fill="#0E73BB"/>
<path transform="translate(1153,1237)" d="m0 0h46v21l-5 1-1-2-1-12-1-1h-10l-1 1v34l1 2 10 1 1 5-5 2h-23l-4-3 1-4 10-1 1-1v-36h-11l-1 4v9l-2 2-4-1-1-1z" fill="#0E73BB"/>
<path transform="translate(1324,1237)" d="m0 0h44l1 2v18l-1 2h-5l-1-13-1-2h-10l-1 1-1 36 12 1 1 4-2 2h-28l-2-4 1-2 11-1v-36l-1-1h-10l-1 1-1 13-5 1-1-2v-19z" fill="#0E73BB"/>
<path transform="translate(418,1237)" d="m0 0h45l1 1-1 21-5-1-1-12-1-2h-10l-1 1v35l4 1 6 1 2 4-2 2h-28l-3-3 2-3 10-1 1-1v-35l-1-1h-10l-1 1-1 13-5 1-1-2z" fill="#0E73BB"/>
<path transform="translate(1092,1237)" d="m0 0h21l1 4-2 2-6 1 3 10 5 12 3 10 5-2 4-11 6-14v-5l-6-2-1-3 1-2h20l2 4-6 4-6 13-11 27-2 3h-7l-3-5-10-25-6-13-6-4z" fill="#0E73BB"/>
<path transform="translate(135,1237)" d="m0 0h45l1 3v17l-1 2-5-1-1-13-1-1h-12v37l11 1 2 4-2 2h-28l-2-4 1-2 10-1 1-1v-35l-1-1h-9l-2 1-1 13-5 1-1-2z" fill="#0E73BB"/>
<path transform="translate(697,1237)" d="m0 0h19l2 4-2 2-5 1 1 8 8 18 1 5 5-1 4-11 6-14v-5l-7-2 1-5h20l2 4-7 5-11 27-6 14-1 1h-7l-4-8-10-24-4-10v-2l-6-2-1-3z" fill="#0E73BB"/>
<path transform="translate(428,969)" d="m0 0h58l13 4 6 4-2 1-8-4-10-2h-57l-3 2-1 7 2 5 8 3 1 1v67l-1 2-9 3v11l3 2h35l3-2v-12l-9-2-2-3v-20l1-3 2-1h8l6 4 7 10 8 12 7 11 4 5 2 1h21l3-2 1-8-1-4-12-3-18-27v-4l11-7 4-5 3-8v-16l-3-9 4 4 2 8v10l-2 8-6 9-5 4-6 4 7 11 9 14v2l10 2 4 3 1 3v8l-4 5-4 1h-17l-5-2-5-6-22-33-6-2h-6l-1 22 7 1 4 4 1 2v7l-3 5-6 2h-25l-9-1-4-4-1-5 2-7 5-4h4v-67l-7-2-3-4-1-6 3-6z" fill="#8DD5E1"/>
<path transform="translate(835,966)" d="m0 0h24l10 3 4-3h10l3 3 2 13v15l-3 5-2 2h-8l-5-3-7-10-5-4-6-2h-8l-10 4-3 6 1 6 6 4 8 3 19 4 11 4 9 7 5 6 2 6v19l-4 9-6 7-2-1 6-7 4-11v-13l-4-11-8-7-9-4-28-7-10-6-3-4 1-6 4-6 8-4h14l8 5 5 6 4 6 1 1h10l1-2v-28l-3-3h-6l-5 4-11-3-7-1h-12l-11 2-7 3-8 6-5 6-3 7v18l5 8 5 4 11 5 13 4 10 2 10 4 7 7v9l-4 5-10 4h-10l-8-2-8-5-6-8-5-8-2-1h-8l-2 2-1 34h-1l-1-19v-13l3-5 2-2 10 1 5 6 6 10 5 4 8 3h15l7-2 2-4 1-7-6-7-15-5-10-2-14-5-9-6-5-6-2-4-1-6v-9l3-10 4-6 7-7 12-6z" fill="#8DD5E1"/>
<path transform="translate(1266,1237)" d="m0 0h28l1 5-1 1-9 1-1 1v35l1 1h22v-14l5-1 2 3v18l-1 1-45 1-3-3 1-4 11-1v-37l-10-1-2-1z" fill="#0E73BB"/>
<path transform="translate(832,1236)" d="m0 0h11l5 2h5l4-1 2 3v11l-2 3-4-1-3-6-4-3-3-1h-11l-8 5-4 7v16l3 5 4 4 5 2h14l7-4 3-3 4 2-1 5-6 5-7 2h-14l-10-4-7-8-2-4v-20l5-9 6-5 3-2z" fill="#0E73BB"/>
<path transform="translate(762,1237)" d="m0 0h36l1 5-1 1-13 1-1 1v35l2 1 12 1 1 5-2 1h-35l-1-4 1-2 12-1 2-1v-35l-1-1-13-1-1-5z" fill="#0E73BB"/>
<path transform="translate(27,1237)" d="m0 0h36l1 4-2 2-14 1v37l15 1 1 4-2 2h-35l-2-4 2-2 14-1v-36l-1-1-13-1-1-5z" fill="#0E73BB"/>
<path transform="translate(359,1236)" d="m0 0h45l1 1v16l-4 4-4-1-2-10h-20v9h6l2-4 5-1 3 3v17l-4 4-3-1-3-6h-6v12l22 1v-7l3-5 5 1 2 4v15l-1 2h-46l-3-3 1-6 6-2v-33l-5-2-2-2 1-5zm1 1-2 4 2 2 6 2v35l-7 2-1 4 5 3h41l1-1v-17l-4-1-2 2-1 8-1 1h-24v-16h10l1 5 3 2 3-3v-15l-4-3-4 6h-8l-1-13h23l1 9 4 2 2-1v-17z" fill="#8DD5E1"/>
<path transform="translate(585,1236)" d="m0 0h46v18l-5 3-4-3-1-8-20-1v11h7l1-5 6-1 3 4v15l-3 4h-5l-3-6-6-1v13h22l1-8 3-3 4 1 2 2v18l-1 1h-46l-3-4 2-5 1-1h5l-1-34-6-3-1-4zm1 1-1 5 7 3v35l-7 3v4l2 1h44l1-1v-15l-2-2-4 1-1 1v9h-23l-3-2 1-13 7-1 2 1 2 5h4l1-6v-11l-1-2h-5v5h-10l-1-13h23l1 7 2 4 4-1 1-5v-12z" fill="#8DD5E1"/>
<path transform="translate(189,1236)" d="m0 0h45l1 1v17l-5 3-5-5v-7l-20 1v10h7l2-6h5l2 2 1 9v8l-3 4-5-1-2-3v-3l-7 1v12h22l1-8 3-3 4 1 2 2v18l-1 1h-46l-3-3 1-5 2-2h5l-1-34-6-3-1-5zm1 1-1 5 7 3v35l-7 3 1 5h45l1-1v-15l-2-2-4 1-1 1-1 9h-24l-1-16h8l2 1 2 5 3 1 2-3v-16l-1-1h-5l-2 5h-8l-1-13h23l2 10 4 1 1-1 1-16-1-1z" fill="#8DD5E1"/>
<path transform="translate(868,1236)" d="m0 0h46v17l-3 4-4-1-2-2-1-8h-20v9h6l3-5h5l2 2v18l-2 3h-5l-3-6h-6v12h22l2-10 5-1 3 3v18l-1 1h-46l-4-4 1-4 7-3v-33l-5-2-2-2 1-5zm1 1-2 4 2 2 6 2v35l-7 3v4l1 1h45v-17l-4-1-2 2-1 8-23 1-1-1-1-15h10l2 6h4l1-2v-16l-1-1h-5l-2 5h-8v-13h23v9l2 2 4-1v-17z" fill="#8DD5E1"/>
<path transform="translate(705,969)" d="m0 0h31l5 4 1 10-3 5-9 3-7 14-12 22-4 8v21l15 1 6 4 1 2v9l-4 5-5 1h-53l-5-2-3-4v-8l3-5 4-2h15v-20l-2-6 4 4 1 3v19l-1 2-17 1-4 1v12l3 2h58l4-4v-7l-2-3-3-1-16-1-2-3 1-23 14-26 10-18 9-3 1-1v-11l-3-2h-33l-1 3v8l1 4 6 2-1 5-2-4-4-2-2-3v-11z" fill="#8DD5E1"/>
<path transform="translate(600,588)" d="m0 0h35l21 2 16 3 17 4 9 3 10 4 9 4 12 6 13 8 12 9 2 3-4-2-14-10-14-8-17-8-21-7-21-5-15-2-15-1h-34l-17 1-14 2-20 6-20 7-12 5-17 9-12 8-11 8-2-1 7-6 5-2v-2l7-4 11-6 17-9 18-7 26-8 11-2z" fill="#8DD5E1"/>
<path transform="translate(549,1234)" d="m0 0h9l9 2h5l2 2v15l-4 3-4-2-3-7-7-3-8 1-5 5 1 5 18 4 9 4 4 5 2 4-1 7-4 7-7 4-6 1h-9l-10-3-3 2h-3v-2h-2l-1-2v-11l4-5 4 2 6 7 6 2h7l7-3 1-1v-5l-6-3-15-3-9-6-3-7 1-8 3-5 5-4zm-1 2-7 3-5 5-1 3v8l2 4h2v2l5 3 18 4 5 3 1 5-5 5-3 1h-12l-7-4-3-5-5 1v12l4 2 1-1 7 1 4 1h13l9-4 3-4v-12l-5-6-5-2-15-3-6-2-1-7 1-4 5-2h10l6 3 4 8 4-1 1-1v-13l-1-2-9 1-5-2z" fill="#8DD5E1"/>
<path transform="translate(134,1236)" d="m0 0h48v22l-3 3-4-1-2-3-1-11h-9v33l10 1 3 3-1 4-3 3h-29l-3-4 2-5 1-1 9-1v-33h-8l-1 11-3 4-5-1-2-7v-16zm1 1v20l1 2 5-1 1-13 2-1h9l1 1v35l-1 1-10 1-1 4 2 2h28l2-4-2-2-11-1v-37h12l1 1 1 13 5 1 1-7v-14l-1-1z" fill="#8DD5E1"/>
<path transform="translate(738,866)" d="m0 0h21l1 1v19l-1 1h-21l-1-1v-19z" fill="#0E73BB"/>
<path transform="translate(74,1236)" d="m0 0h15l9 12 13 20 2 1-1-23-7-2-2-5 2-3h22l-1 2h-19l-2 4 8 1 2 2v26l-3 1-3-3-16-24-5-7h-13l-1 3 7 3 1 2v33l-1 2-5 3 1 3h20l-1-4-8-2-1-1v-26l4-1 8 11 13 20-1 2-11-16-8-12-3-2 1 23 7 2 2 2-1 5-3 2h-18l-3-3 1-5 3-3h2l-1-33-5-2-3-3 2-4z" fill="#8DD5E1"/>
<path transform="translate(417,1236)" d="m0 0h48v22l-3 3-4-1-2-2-1-12h-9v33l10 1 2 2v5l-3 3h-29l-3-4 2-5 1-1h10l-1-34-9-1v12l-4 4-4-1-2-3v-20zm1 1v20l1 2 5-1 1-13 1-1h10l1 1v35l-1 1-10 1-2 4 3 2h28l2-4-4-3h-7l-1-1v-35l1-1h10l1 2 1 12 5 1 1-21-1-1z" fill="#8DD5E1"/>
<path transform="translate(300,1236)" d="m0 0h16l7 10 13 20 1 2 3 1-1-23-7-2-2-2 1-5 1-1h21l2 2-1 5-4 4v39l-2 4h-8l-1-3 7 1 1-43 5-3v-4h-19v4l8 2v27h-4l-7-10-12-18-3-4v-2l-14 1v4l7 3v35l-4 3-7-1-5-2-6-8-4-4 1-5 5-4 2-5-1-8-5-7 4 2 4 5 1 7-4 8-5 4 2 4 9 10 8 1h3l-1-34-5-2-2-2 1-5z" fill="#8DD5E1"/>
<path transform="translate(1027,969)" d="m0 0h35l4 4 1 3v7l-3 5-5 1 3 9 8 17 3 1 3-9 6-13v-4l-5-4-1-2v-9l5-6h31l5 4 1 2v9l-4 5-8 1-2 6-2 1 1-4 2-4 9-3 1-1v-11l-3-2h-30l-4 4v7l3 4 4 2-1 6-10 23-4 1-3-5-10-21 1-5 5-2 1-1v-11l-3-2h-33l-4 3v8l3 4 7 2 5 8 7 14 9 16-1 3-12-22-9-17-8-3-3-3-1-7 2-6z" fill="#8DD5E1"/>
<path transform="translate(1322,1236)" d="m0 0h47l1 1v21l-3 3-5-2-1-1-1-12-9-1v34l9 1 3 3-1 5-2 2h-28l-4-4 2-5 1-1 9-1v-33h-8l-1 11-3 4-5-1-2-4v-19zm2 1-1 1v19l1 2 5-1 1-13 1-1h10l1 1v36l-11 1-1 4 2 2h28l2-4-1-2-12-1 1-36 1-1h10l1 2 1 13h5l1-2v-19l-1-1z" fill="#8DD5E1"/>
<path transform="translate(1152,1236)" d="m0 0h48l1 1v20l-4 4-5-2-1-2-1-11h-8l-1 34h10l3 4-2 5-1 1h-29l-3-3 1-6 2-1 9-1v-26l-1-7h-8l-1 12-3 3-5-1-1-2zm1 1v20l2 2 4-1 1-1v-11l1-2h11v36l-1 1-10 1-1 4 4 3h24l4-2-1-5-10-1-1-2v-34l1-1h10l1 1 1 12 1 2 5-1v-21z" fill="#8DD5E1"/>
<path transform="translate(1057,1243)" d="m0 0h15l6 3 3 4-1 7-5 5-12 2-6-1-2-2v-15z" fill="#FEFEFE"/>
<path transform="translate(702,866)" d="m0 0h21v21h-22v-20z" fill="#0E73BB"/>
<path transform="translate(738,897)" d="m0 0 21 1 1 1v18l-1 1h-22v-20z" fill="#0E73BB"/>
<path transform="translate(737,836)" d="m0 0h23v19l-1 1h-22z" fill="#0E73BB"/>
<path transform="translate(666,836)" d="m0 0h23v19l-1 1h-22z" fill="#0E73BB"/>
<path transform="translate(915,969)" d="m0 0h34l6 5 1 8-3 4v-10l-4-4h-34l-4 4v7l3 4 7 2 1 3v65l-2 2-8 3-1 2v10l3 1h36l3-4v-7l-4-4-6-2v-18l2-3 2 1-2 3v15l7 3 4 6-1 8-4 4-4 1h-29l-6-2-3-3v-10l4-5 6-2 1-66-7-1-4-5v-9l4-5z" fill="#8DD5E1"/>
<path transform="translate(701,836)" d="m0 0h22v20h-22z" fill="#0E73BB"/>
<path transform="translate(657,1243)" d="m0 0h15l6 3 3 3v5l-6 5-5 2h-13l-2-2v-14z" fill="#FEFEFE"/>
<path transform="translate(261,1243)" d="m0 0h15l7 3 2 3-1 6-7 5-4 1h-12l-2-3v-12z" fill="#FEFEFE"/>
<path transform="translate(641,1236)" d="m0 0h36l8 6 4 8-1 6-4 6-4 3 2 4 9 10 5 2 2 5-4 4h-8l-7-8-3-5-5-5-5-3h-7l-1 1v9l7 2 3 3-2 4-2 2h-21l-4-5 2-4 6-2v-33l-7-3zm2 1-2 4 2 2 5 2 1 36-7 2v4l1 1h21l1-5-7-2h-2v-12l1-1h11l9 8 9 12h8l2-2-1-4-6-2-6-8-4-4-1-5 5-2 3-4 1-8-3-7-10-5z" fill="#8DD5E1"/>
<path transform="translate(761,1236)" d="m0 0h38l2 5-3 4h-13v34l13 1 3 4-2 5-1 1h-36l-3-4 2-5 1-1h13v-35h-12l-4-4zm1 1-1 5 1 1 13 1 1 1v35l-2 1-12 1-1 4 1 2h35l2-1-1-5-12-1-2-1v-35l1-1 13-1 1-5-1-1z" fill="#8DD5E1"/>
<path transform="translate(696,1236)" d="m0 0h21l2 2v5l-7 3 3 9 7 17v2l3-2 5-13 5-11v-2l-7-3v-6l1-1h22l2 2v5l-6 3-10 23-9 21h-9l-4-8-13-32-2-4-6-4 1-5zm1 1-2 3 2 3 5 1 3 9 9 23 6 12h7l6-12 7-17 5-13 7-5-2-4h-20l-1 5 7 2-1 7-8 19-2 5h-4l-3-10-7-16v-5l6-2v-4l-1-1z" fill="#8DD5E1"/>
<path transform="translate(223,855)" d="m0 0 1 3-6 10-10 25-4 14-4 21-2 21v49l2 19 7 30 8 22 9 17-1 3-10-19-6-16-4-12-5-23-2-12-1-16v-35l1-17 4-25 4-17 6-16 6-14z" fill="#8DD5E1"/>
<path transform="translate(26,1236)" d="m0 0h38l2 5-4 4-12 1v33l13 1 3 3-1 4-2 3h-36l-3-3 1-5 2-2 12-1v-34h-11l-4-3 1-5zm1 1-1 5 1 1 13 1 1 1v36l-14 1-2 4 2 2h35l2-4-1-2-15-1v-37l14-1 2-4-1-2z" fill="#8DD5E1"/>
<path transform="translate(1042,1236)" d="m0 0h35l8 6 3 5v12l-4 6-8 5-4 1-14 1v7l12 1 3 3-1 5-2 2h-27l-4-4 2-4 2-2 4-1 1-33-7-2-1-1v-5zm1 1-1 5 7 3v35l-7 3v4l1 1h27l2-2-1-4-15-1v-10l2-1 17-1 8-5 4-6v-10l-4-6h-2v-2l-7-3z" fill="#8DD5E1"/>
<path transform="translate(933,1241)" d="m0 0v3l-1 2v9l4 6 8 3 16 4 4 3 1 4-3 5-5 3h-13l-6-3-3-3-1-3-4-1v13h4l8 1 2 1h14l8-4 3-3 1-9-3-6-4-3-11-3-9-2-4-2 1-2 8 3 10 2 9 4 4 4 2 5-1 7-3 5-5 4-3 2-6 1h-9l-10-3-3 2h-3l-3-4v-12l3-3 5 1 4 6 8 3h7l7-3 1-1v-5l-6-3-15-3-8-5-4-8 1-8z" fill="#8DD5E1"/>
<path transform="translate(863,641)" d="m0 0h11l22 3 22 7 15 8 11 8 3 4-4-2-10-7-17-9-14-5-14-3-14-1h-12l-18 2-21 5-17 6-17 8h-5l-12-14-5-5v-2h-2l1-2 12 12 6 8h6l12-6 12-5 16-5 16-3z" fill="#8DD5E1"/>
<path transform="translate(1031,822)" d="m0 0 5 5 8 16 2 8 16 2 11 2 17 4 15 5 13 6 16 8 14 8 9 7 10 8 14 14 7 9-1 2-12-14-9-9-11-9-10-7-17-10-20-9-15-5-18-5-17-3-11-2-3-3-5-13-8-13z" fill="#8DD5E1"/>
<path transform="translate(1125,1236)" d="m0 0h22l2 2-1 5-5 3-10 23-9 21h-9l-5-10-8-20-5-12v-2l-5-2-2-1v-5l2-1 1 5 6 4 6 15 6 14 4 11 1 1h7l11-26 5-12 4-6 4-2-1-3-20-1 1 5 6 2-1 7-6 15-2 1 1-6 6-13v-2l-7-3-1-4z" fill="#8DD5E1"/>
<path transform="translate(970,1014)" d="m0 0 4 5 9 10 8 14 7 13 8 2 4 3 2 8-3 6-2 2-4 1h-17l-6-3-5-8-4-9-7-12-9-10-3-2-4 2 2-4 5 1 9 9 8 13 9 17 4 3h20l3-2v-11l-4-2-7-1-3-4-9-19-9-12-6-6z" fill="#8DD5E1"/>
<path transform="translate(245,1236)" d="m0 0h36l3 3-6-1-32-1-1 5 8 2 1 4-1 33-7 3 1 3h20l1-4-8-2-1-4v-8l2-2h11l8 7-1 2-7-6-2-1h-7l-1 1v9l7 2 2 2-1 5-2 2h-21l-3-3 1-6 6-2v-33l-7-3v-6z" fill="#8DD5E1"/>
<path transform="translate(832,1242)" d="m0 0h11l6 3 3 3 1 5-2-1-3-5-7-3h-7l-8 4-4 6-1 3v12l3 6 4 4 6 2h9l7-3 4-4h5l3 4-2 5-6 5-4 2-6 1h-10l-10-3-8-7 1-2 7 6 8 3h14l9-3 4-4v-4l-5-1-2 4-6 3h-14l-6-3-6-6-1-3v-16l4-7 5-4z" fill="#8DD5E1"/>
<path transform="translate(971,696)" d="m0 0 4 4 8 17 4 12 2 14v16l-2 14-4 12 1 4 16 6 13 8 10 8 4 4-1 2-10-9-10-7-12-6-14-5 1-7 4-12 1-5v-29l-6-21-8-16z" fill="#8DD5E1"/>
<path transform="translate(474,637)" d="m0 0 2 1-16 15-8 8-14 19-10 17-8 17-7 22-2 9-3 4-13 3h-6l3-2 15-4 3-7 4-15 9-23 6-10 6-11 12-16 11-12 11-11z" fill="#8DD5E1"/>
<path transform="translate(1390,1243)" d="m0 0h15l6 3 5 6 3 7v9l-3 7-7 6-5 1h-12l-3-1-1-2v-33zm1 2-1 2v32l1 1h16l8-6 1-2v-17l-6-8-5-2z" fill="#8DD5E1"/>
<path transform="translate(1055,1030)" d="m0 0 3 3 2 4v21l-1 1-16 1-5 1v11l3 3h58l5-2v2l-6 3h-49l-9-1-4-3-1-3v-7l3-5 4-2 16-1v-18l-3-6z" fill="#8DD5E1"/>
<path transform="translate(1265,1242)" d="m0 0 10 1 2 1v37l-2 1-9 1 1 4 5 1 41-1v-18l-1-2h-5v-2h6l2 2v22l-1 1h-47l-3-3v-5l3-2 8-1v-33l-8-1z" fill="#8DD5E1"/>
<path transform="translate(1377,1236)" d="m0 0h32l5 3-2 1-6-2h-28v4l4 2 1 31-1 6-4 2v4h28l8-3 5-2-5 5-8 3h-28l-4-5 3-5 3-1 1-34-5-2-1-5z" fill="#8DD5E1"/>
<path transform="translate(1265,1236)" d="m0 0h30l2 2-1 5-3 2-7 1-1 34 20-1 1-12h1v14l-2 1h-20l-2-2v-35l2-2 9-1v-4h-28l-2 4v-5z" fill="#8DD5E1"/>
<path transform="translate(387,751)" d="m0 0 1 2-21 6-30 10-21 9-19 10-17 11-2-1 5-4 13-8 14-8 28-12 13-5 22-6z" fill="#8DD5E1"/>
<path transform="translate(701,864)" d="m0 0h23l1 2v21l-2 2h-22l-2-2v-20zm1 2-1 1v20h22v-21z" fill="#8DD5E1"/>
<path transform="translate(832,1234)" d="m0 0h10l6 2h10l3 4-1 12-3 4-4-1 1-2 3 1 1-3v-11l-1-2-9 1-5-2h-11l-6 2-6 4-5 8-1 2v20l2 6-3-3-2-6v-14l3-9 8-9 3-2z" fill="#8DD5E1"/>
<path transform="translate(721,834)" d="m0 0 4 1v22l-1 1-22 1-3-3v-20l1-1zm-20 2v20h22v-20z" fill="#8DD5E1"/>
<path transform="translate(1091,1016)" d="m0 0 1 2-8 15-1 9v15h16l6 5v11h-1l-1-10-5-3-16-1-2-2v-21l10-19z" fill="#8DD5E1"/>
<path transform="translate(651,969)" d="m0 0h34l5 5 1 9-3 5-5 2v5l-2-1-1-5 7-3 1-2v-9l-3-3h-34l-3 3v11l-3-3v-7l3-5z" fill="#8DD5E1"/>
<path transform="translate(314,1253)" d="m0 0 4 1v3l-2-1v23l7 2 2 2-1 5-2 2h-32l-6-7 1-2 5 6h32v-4l-8-2-1-27z" fill="#8DD5E1"/>
<path transform="translate(737,864)" d="m0 0h23l1 1v23l-1 1h-23l-1-1v-23zm1 2-1 1v19l1 1h21l1-1v-19l-1-1z" fill="#8DD5E1"/>
<path transform="translate(667,834)" d="m0 0h21l3 2v20l-1 2h-24l-1-1v-22zm-1 2v20h22l1-1v-19z" fill="#8DD5E1"/>
<path transform="translate(737,896)" d="m0 0h23l1 1v22l-1 1h-23l-1-1v-22zm1 1-1 1v20h22l1-1v-18l-1-1z" fill="#8DD5E1"/>
<path transform="translate(878,1070)" d="m0 0 2 1-6 4-9 3-5 1h-25l-11-3-5 1-4 3-9-1-3-3 1-2 5 3h6l7-4 7 2 11 2h15l18-4z" fill="#8DD5E1"/>
<path transform="translate(657,1243)" d="m0 0h15l6 3 3 3v5l-6 5-5 2h-13l-2-2v-14zm1 2-1 1v12l1 1h12l8-4 1-1v-5l-3-3-3-1z" fill="#8DD5E1"/>
<path transform="translate(738,834)" d="m0 0h21l2 1v22l-4 2h-20l-1-1v-23zm-1 2v20h22l1-1v-19z" fill="#8DD5E1"/>
<path transform="translate(1057,1243)" d="m0 0h15l6 3 3 4-1 7-5 5-12 2-6-1-2-2v-15zm1 2-1 1v15l1 1h12l5-2 4-4v-7l-6-4z" fill="#8DD5E1"/>
<path transform="translate(261,1243)" d="m0 0h15l7 3 2 3-1 6-7 5-4 1h-12l-2-3v-12zm1 2-1 1v11l1 2h12l7-3 2-2v-5l-5-4z" fill="#8DD5E1"/>
<path transform="translate(238,1110)" d="m0 0 5 4 4 5v2h2l7 8 8 8 11 9 9 6v2l5 2 10 7h-3l-10-6-17-13-15-14-8-8-8-10z" fill="#8DD5E1"/>
<path transform="translate(1092,1236)" d="m0 0h22l1 7-7 3 3 9 7 17v2l3-2 2-5 1 3-2 5-5 1-8-20-3-7v-5l7-3v-4h-21z" fill="#8DD5E1"/>
<path transform="translate(951,986)" d="m0 0h2v2l-8 3-1 23 5-3 20-20v-2l-3-3 5 2v4l-24 24h-4v-27z" fill="#8DD5E1"/>
<path transform="translate(969,969)" d="m0 0h34l3 4-4-1h-32l-3 1-2 5 1 8-3-3v-7l3-5z" fill="#8DD5E1"/>
<path transform="translate(1143,1145)" d="m0 0 2 1-7 6-14 9-11 7-11 5-3-1 21-11 11-7z" fill="#8DD5E1"/>
<path transform="translate(1006,973)" d="m0 0 2 1 1 8-3 6-10 3-5 4-7 8-4 2 2-4 12-12 9-2 3-1z" fill="#8DD5E1"/>
<path transform="translate(264,808)" d="m0 0 2 1-16 15-12 13v-3l11-12 10-10z" fill="#8DD5E1"/>
<path transform="translate(683,995)" d="m0 0 3 4 8 16 3 1 2-7 1 3-3 7-4-1-3-5-7-15z" fill="#8DD5E1"/>
</svg>
